<svg width="96" height="33" viewBox="0 0 96 33" fill="none" xmlns="http://www.w3.org/2000/svg">
<path d="M1.46875 23.1299C1.46875 22.7314 1.53516 22.3213 1.66797 21.8994C2.33984 21.7119 2.96875 21.6221 3.55469 21.6299C3.40625 20.1064 3.28125 18.4424 3.17969 16.6377C3.07812 14.8252 3.00781 13.1533 2.96875 11.6221H2.95703L1.28125 11.376C1.17969 11.0869 1.10156 10.7666 1.04688 10.415C0.992188 10.0635 0.964844 9.72363 0.964844 9.39551C0.964844 9.14551 0.984375 8.87207 1.02344 8.5752C1.85938 8.20801 3.17188 7.9502 4.96094 7.80176C6.75 7.64551 8.52734 7.56738 10.293 7.56738C11.4805 7.56738 12.4883 7.66113 13.3164 7.84863C14.1445 8.03613 14.8359 8.46191 15.3906 9.12598C15.9531 9.78223 16.2344 10.7666 16.2344 12.0791C16.2344 14.5088 15.6484 17.6963 14.4766 21.6416C14.2812 22.29 14.0625 22.8721 13.8203 23.3877C13.5781 23.9033 13.2695 24.3486 12.8945 24.7236C12.5742 25.083 12.2422 25.3564 11.8984 25.5439C11.5625 25.7236 11.1562 25.8135 10.6797 25.8135C10.4375 25.8135 10.1094 25.7744 9.69531 25.6963C9.17969 25.5947 8.72266 25.4658 8.32422 25.3096C7.92578 25.1455 7.59375 24.9814 7.32812 24.8174C7.07031 24.6533 6.76172 24.4463 6.40234 24.1963C6.24609 24.4229 5.98438 24.6729 5.61719 24.9463C5.25781 25.2197 4.85938 25.4541 4.42188 25.6494C3.98438 25.8447 3.57812 25.9502 3.20312 25.9658C2.66406 25.7627 2.23828 25.4033 1.92578 24.8877C1.62109 24.3643 1.46875 23.7783 1.46875 23.1299ZM10.4922 21.5361C10.7109 20.458 10.8828 19.208 11.0078 17.7861C11.1328 16.3564 11.2383 14.8135 11.3242 13.1572L11.3711 12.3252C11.3242 12.2393 11.1328 12.1533 10.7969 12.0674C10.4688 11.9814 10.0352 11.9385 9.49609 11.9385L8.58203 11.9268C8.14453 11.9268 7.79297 11.9463 7.52734 11.9854C7.52734 12.3135 7.53125 12.5908 7.53906 12.8174C7.5625 14.1768 7.57422 15.3916 7.57422 16.4619C7.57422 17.7041 7.5625 19.4697 7.53906 21.7588C8.5625 21.7588 9.54688 21.6846 10.4922 21.5361ZM21.0708 18.0088C21.5318 18.0088 22.0396 18.0557 22.5943 18.1494C23.1568 18.2432 23.6724 18.3564 24.1412 18.4893V18.126C24.1412 17.8838 24.1333 17.6143 24.1177 17.3174C24.1099 17.0205 24.0943 16.8252 24.0708 16.7314C24.0005 16.5986 23.7974 16.4619 23.4615 16.3213C23.1333 16.1807 22.5943 16.1104 21.8443 16.1104C21.3833 16.1104 20.9068 16.1689 20.4146 16.2861C19.9302 16.3955 19.3912 16.5439 18.7974 16.7314C18.4771 16.2002 18.2193 15.6963 18.024 15.2197C17.8365 14.7354 17.7427 14.251 17.7427 13.7666C17.7427 13.6182 17.7544 13.4697 17.7779 13.3213C19.0435 12.3369 20.6802 11.8447 22.688 11.8447C23.7974 11.8447 24.7818 11.9697 25.6412 12.2197C26.5005 12.4697 27.2076 12.9541 27.7622 13.6729C28.3169 14.3916 28.5943 15.4111 28.5943 16.7314C28.5943 18.0205 28.4419 19.2705 28.1372 20.4814C27.8404 21.6846 27.688 22.2979 27.6802 22.3213L29.3794 21.5947C29.606 21.8369 29.8052 22.1338 29.9771 22.4854C30.1568 22.8291 30.2701 23.2275 30.3169 23.6807C30.2076 23.915 29.9693 24.2158 29.6021 24.583C29.2349 24.9424 28.7857 25.2627 28.2544 25.5439C27.7232 25.8252 27.1685 25.9658 26.5904 25.9658C25.9419 25.9658 25.4497 25.7744 25.1138 25.3916C24.7857 25.0088 24.6216 24.5127 24.6216 23.9033C24.6216 23.5596 24.6724 23.2119 24.774 22.8604L24.4224 22.7549C24.2037 23.9893 23.7388 24.833 23.0279 25.2861C22.3169 25.7393 21.5318 25.9658 20.6724 25.9658C20.1099 25.9658 19.5669 25.8096 19.0435 25.4971C18.5201 25.1768 18.0943 24.7158 17.7662 24.1143C17.438 23.5049 17.274 22.7939 17.274 21.9814C17.274 20.6846 17.5982 19.7002 18.2466 19.0283C18.8951 18.3486 19.8365 18.0088 21.0708 18.0088ZM22.4068 22.4736C22.6021 22.4346 22.8326 22.3252 23.0982 22.1455C23.3716 21.9658 23.6138 21.751 23.8247 21.501C24.0357 21.251 24.1607 21.0127 24.1997 20.7861L24.1294 20.5049C23.7154 20.4502 23.274 20.4229 22.8052 20.4229C22.4068 20.4229 22.1333 20.4541 21.9849 20.5166C21.7349 20.7979 21.6099 21.1104 21.6099 21.4541C21.6099 21.7041 21.6724 21.9307 21.7974 22.1338C21.9302 22.3369 22.1333 22.4502 22.4068 22.4736ZM31.7081 19.2627C31.7081 17.9893 31.7276 16.8291 31.7667 15.7822L30.4893 15.5596C30.3878 15.1689 30.3175 14.8252 30.2784 14.5283C30.2393 14.2314 30.2198 13.915 30.2198 13.5791L30.2432 13.3447C30.2667 13.2354 30.2784 13.1455 30.2784 13.0752L31.9776 12.7002C32.0167 12.2158 32.1065 11.6689 32.2472 11.0596C32.3878 10.4502 32.5362 10.001 32.6925 9.71191C32.9425 9.52441 33.2432 9.38379 33.5948 9.29004C33.9464 9.19629 34.3253 9.14941 34.7315 9.14941C35.0753 9.14941 35.4073 9.18457 35.7276 9.25488C36.0557 9.31738 36.3409 9.40332 36.5831 9.5127C36.6065 9.77832 36.6182 10.083 36.6182 10.4268C36.6182 10.9893 36.5909 11.626 36.5362 12.3369L38.5987 11.9619C38.8878 12.4619 39.0323 13.0049 39.0323 13.5908C39.0323 13.9971 38.9815 14.3643 38.88 14.6924C38.7862 15.0205 38.6534 15.3916 38.4815 15.8057C37.9659 15.8916 37.2589 15.9463 36.3604 15.9697C36.2511 17.2432 36.0089 19.1143 35.6339 21.583L35.5753 21.9814L35.5987 22.0049L38.3526 21.1494C38.9229 21.626 39.2706 22.3604 39.3956 23.3525C39.3956 23.4072 39.1417 23.665 38.6339 24.126C38.1339 24.5791 37.505 25.001 36.7472 25.3916C35.9893 25.7744 35.1651 25.9658 34.2745 25.9658C32.7198 25.9658 31.8917 25.0166 31.7901 23.1182C31.7354 22.1572 31.7081 20.8721 31.7081 19.2627ZM43.8219 18.0088C44.2828 18.0088 44.7907 18.0557 45.3453 18.1494C45.9078 18.2432 46.4235 18.3564 46.8922 18.4893V18.126C46.8922 17.8838 46.8844 17.6143 46.8688 17.3174C46.861 17.0205 46.8453 16.8252 46.8219 16.7314C46.7516 16.5986 46.5485 16.4619 46.2125 16.3213C45.8844 16.1807 45.3453 16.1104 44.5953 16.1104C44.1344 16.1104 43.6578 16.1689 43.1657 16.2861C42.6813 16.3955 42.1422 16.5439 41.5485 16.7314C41.2282 16.2002 40.9703 15.6963 40.775 15.2197C40.5875 14.7354 40.4938 14.251 40.4938 13.7666C40.4938 13.6182 40.5055 13.4697 40.5289 13.3213C41.7946 12.3369 43.4313 11.8447 45.4391 11.8447C46.5485 11.8447 47.5328 11.9697 48.3922 12.2197C49.2516 12.4697 49.9586 12.9541 50.5133 13.6729C51.068 14.3916 51.3453 15.4111 51.3453 16.7314C51.3453 18.0205 51.193 19.2705 50.8883 20.4814C50.5914 21.6846 50.4391 22.2979 50.4313 22.3213L52.1305 21.5947C52.3571 21.8369 52.5563 22.1338 52.7282 22.4854C52.9078 22.8291 53.0211 23.2275 53.068 23.6807C52.9586 23.915 52.7203 24.2158 52.3532 24.583C51.986 24.9424 51.5368 25.2627 51.0055 25.5439C50.4743 25.8252 49.9196 25.9658 49.3414 25.9658C48.693 25.9658 48.2008 25.7744 47.8649 25.3916C47.5368 25.0088 47.3727 24.5127 47.3727 23.9033C47.3727 23.5596 47.4235 23.2119 47.525 22.8604L47.1735 22.7549C46.9547 23.9893 46.4899 24.833 45.7789 25.2861C45.068 25.7393 44.2828 25.9658 43.4235 25.9658C42.861 25.9658 42.318 25.8096 41.7946 25.4971C41.2711 25.1768 40.8453 24.7158 40.5172 24.1143C40.1891 23.5049 40.025 22.7939 40.025 21.9814C40.025 20.6846 40.3493 19.7002 40.9977 19.0283C41.6461 18.3486 42.5875 18.0088 43.8219 18.0088ZM45.1578 22.4736C45.3532 22.4346 45.5836 22.3252 45.8493 22.1455C46.1227 21.9658 46.3649 21.751 46.5758 21.501C46.7868 21.251 46.9118 21.0127 46.9508 20.7861L46.8805 20.5049C46.4664 20.4502 46.025 20.4229 45.5563 20.4229C45.1578 20.4229 44.8844 20.4541 44.736 20.5166C44.486 20.7979 44.361 21.1104 44.361 21.4541C44.361 21.7041 44.4235 21.9307 44.5485 22.1338C44.6813 22.3369 44.8844 22.4502 45.1578 22.4736ZM54.6584 16.4268C54.6584 14.6221 54.6896 13.0205 54.7521 11.6221L53.1701 11.376C53.0685 11.0869 52.9904 10.7666 52.9357 10.415C52.881 10.0635 52.8537 9.72363 52.8537 9.39551C52.8537 9.14551 52.8732 8.87207 52.9123 8.5752C53.9357 8.21582 55.2873 7.95801 56.967 7.80176C58.6467 7.64551 60.2873 7.56738 61.8888 7.56738C63.0842 7.56738 64.1115 7.66113 64.9709 7.84863C65.8302 8.03613 66.549 8.46191 67.1271 9.12598C67.7131 9.78223 68.006 10.7666 68.006 12.0791C68.006 12.6182 67.9201 13.2158 67.7482 13.8721C67.5763 14.5205 67.3381 15.1689 67.0334 15.8174C66.7521 16.4111 66.4318 16.9775 66.0724 17.5166C65.7209 18.0479 65.3537 18.5049 64.9709 18.8877C65.1974 19.4814 65.4318 20.0244 65.674 20.5166C65.9162 21.001 66.2873 21.5908 66.7873 22.2861L68.4279 21.5947C69.0373 22.1182 69.3927 22.8135 69.4943 23.6807C69.4943 23.7275 69.3068 23.9502 68.9318 24.3486C68.5646 24.7471 68.0842 25.1182 67.4904 25.4619C66.8967 25.7979 66.2287 25.9658 65.4865 25.9658C64.9084 25.9658 64.3888 25.8643 63.9279 25.6611C63.4748 25.458 63.0998 25.1025 62.8029 24.5947C62.5138 24.0947 62.2834 23.501 62.1115 22.8135C61.9396 22.126 61.8185 21.4463 61.7482 20.7744L59.0763 20.6572C59.1467 21.2666 59.2365 21.8955 59.3459 22.5439C59.4552 23.1846 59.5217 23.5713 59.5451 23.7041C59.6779 24.4775 59.7638 25.0049 59.8029 25.2861C59.4435 25.5049 59.006 25.6729 58.4904 25.79C57.9826 25.9072 57.4631 25.9658 56.9318 25.9658C56.3224 25.9658 55.7326 25.8838 55.1623 25.7197C54.9904 25.0322 54.8615 23.8291 54.7756 22.1104C54.6974 20.3838 54.6584 18.4893 54.6584 16.4268ZM61.9474 17.833C62.2209 17.0518 62.4357 16.2041 62.592 15.29C62.756 14.3682 62.9045 13.2705 63.0373 11.9971C62.8107 11.9111 62.5138 11.8447 62.1467 11.7979C61.7795 11.751 61.424 11.7275 61.0802 11.7275C60.299 11.7275 59.7131 11.7471 59.3224 11.7861C59.2365 14.7236 59.1427 16.8057 59.0412 18.0322L61.9474 17.833ZM69.8777 18.8057C69.8777 17.3916 70.1042 16.165 70.5573 15.126C71.0105 14.0869 71.7058 13.2822 72.6433 12.7119C73.5808 12.1338 74.7566 11.8447 76.1706 11.8447C77.7331 11.8447 78.9597 12.1377 79.8503 12.7236C80.7409 13.3018 81.362 14.1064 81.7136 15.1377C82.073 16.1689 82.2527 17.4307 82.2527 18.9229C82.2527 20.2744 82.0144 21.4814 81.5378 22.5439C81.0691 23.5986 80.3581 24.4346 79.405 25.0518C78.4597 25.6611 77.2995 25.9658 75.9245 25.9658C73.7995 25.9658 72.2605 25.3135 71.3073 24.0088C70.3542 22.6963 69.8777 20.9619 69.8777 18.8057ZM76.405 22.5322C76.8034 22.5322 77.0456 22.501 77.1316 22.4385C77.3112 22.126 77.448 21.6846 77.5417 21.1143C77.6355 20.5439 77.6823 19.9268 77.6823 19.2627C77.6823 18.6533 77.6433 18.083 77.5652 17.5518C77.487 17.0127 77.3777 16.5908 77.237 16.2861C77.1511 16.1846 76.9792 16.1104 76.7214 16.0635C76.4636 16.0088 76.1823 15.9814 75.8777 15.9814C75.4792 15.9814 75.2058 16.0244 75.0573 16.1104C74.6667 16.7822 74.4714 17.7158 74.4714 18.9111C74.4714 19.4736 74.5144 20.0479 74.6003 20.6338C74.6862 21.2197 74.7956 21.751 74.9284 22.2275C75.0222 22.3291 75.2136 22.4072 75.5027 22.4619C75.7917 22.5088 76.0925 22.5322 76.405 22.5322ZM83.6087 18.9229C83.6087 17.5713 83.8352 16.3643 84.2883 15.3018C84.7415 14.2393 85.4407 13.3994 86.386 12.7822C87.3391 12.1572 88.5266 11.8447 89.9485 11.8447C90.4329 11.8447 90.9876 11.876 91.6126 11.9385C92.2454 11.9932 92.8508 12.0791 93.429 12.1963L93.6633 12.3604C94.0149 12.6025 94.2727 12.7979 94.4368 12.9463C94.6087 13.0869 94.7883 13.2861 94.9758 13.5439C94.9758 13.9658 94.9173 14.5479 94.8001 15.29C94.6907 16.0244 94.5501 16.708 94.3782 17.3408C94.2063 17.9736 94.0423 18.3799 93.886 18.5596C93.6282 18.6924 93.2102 18.7588 92.6321 18.7588C92.3508 18.7588 92.0852 18.7393 91.8352 18.7002C91.593 18.6533 91.4094 18.5947 91.2844 18.5244L91.0383 16.3564C90.9212 16.2236 90.6516 16.1182 90.2298 16.04C89.8157 15.9541 89.4329 15.9111 89.0813 15.9111C88.9719 15.9111 88.8704 15.9189 88.7766 15.9346C88.5969 16.3018 88.4602 16.7705 88.3665 17.3408C88.2727 17.9111 88.2258 18.4932 88.2258 19.0869C88.2258 19.9463 88.3665 20.6768 88.6477 21.2783C88.929 21.8721 89.5032 22.1689 90.3704 22.1689C90.8001 22.1689 91.2219 22.0986 91.636 21.958C92.0579 21.8174 92.5891 21.6025 93.2298 21.3135C93.4954 21.1885 93.6946 21.0986 93.8274 21.0439C94.1399 21.3564 94.386 21.6846 94.5657 22.0283C94.7454 22.3721 94.8626 22.8135 94.9173 23.3525C94.4173 23.9385 93.7141 24.5205 92.8079 25.0986C91.9094 25.6768 90.8587 25.9658 89.6555 25.9658C88.3743 25.9658 87.2766 25.6572 86.3626 25.04C85.4563 24.415 84.7688 23.5713 84.3001 22.5088C83.8391 21.4385 83.6087 20.2432 83.6087 18.9229Z" fill="black"/>
</svg>